<svg xmlns="http://www.w3.org/2000/svg" width="28" height="28" viewBox="0 0 2.159 2.159"><g fill-rule="evenodd" clip-rule="evenodd"><path fill="#fff" d="M0 0h2.159v2.159H0z"/><path d="M0.748 0.727h0.169v0.704H0.748zm0.83 0h0.424v0.164h-0.256v0.104h0.21v0.165h-0.21v0.108h0.256v0.165h-0.424zm-0.235 0.272c-0.007 -0.043 -0.02 -0.074 -0.035 -0.09 -0.02 -0.015 -0.041 -0.024 -0.059 -0.024 -0.032 0 -0.059 0.021 -0.071 0.056 -0.017 0.041 -0.024 0.09 -0.024 0.147 0 0.126 0.032 0.189 0.098 0.189 0.05 0 0.083 -0.043 0.091 -0.122h0.162c-0.006 0.087 -0.029 0.16 -0.071 0.211 -0.043 0.052 -0.104 0.078 -0.174 0.078 -0.057 0 -0.106 -0.014 -0.148 -0.041 -0.043 -0.028 -0.074 -0.07 -0.095 -0.125 -0.022 -0.052 -0.035 -0.122 -0.035 -0.192 0 -0.081 0.013 -0.153 0.036 -0.211 0.027 -0.055 0.062 -0.098 0.101 -0.125 0.039 -0.024 0.083 -0.038 0.122 -0.038 0.091 0.003 0.158 0.035 0.196 0.084 0.036 0.056 0.062 0.122 0.066 0.2zM0.156 0.727h0.153l0.179 0.386V0.727h0.162v0.704H0.489L0.316 1.05l-0.001 0.164 0.001 0.217H0.156z"/><path fill="#fff" d="M1.499 0.998h0.157v0.157h-0.157zm-0.581 0h0.157v0.157H0.918zm-0.326 0h0.157v0.157H0.591z"/><path fill="#f8e146" d="M1.499 0.998h0.157v0.157h-0.157zm-0.581 0h0.157v0.157H0.918zm-0.326 0h0.157v0.157H0.591z"/></g></svg>