<svg xmlns="http://www.w3.org/2000/svg" width="125.899" height="28" viewBox="0 0.631 14.266 3.174"><path fill="#003662" d="M6.316 2.574h-0.941v0.214l0.029 -0.003 0.001 -0.004c0.006 -0.032 0.063 -0.092 0.132 -0.092h0.21l0 1.096h0.205l-0.001 -1.095h0.215c0.071 0 0.117 0.039 0.125 0.076l0.001 0.004 0.03 -0.001 -0.002 -0.194zM0.214 2.501l0.004 0.003zC0.078 2.642 0 2.836 0 3.033c0 0.219 0.088 0.418 0.249 0.561 0.153 0.136 0.358 0.211 0.577 0.211 0.115 0 0.34 -0.02 0.556 -0.15l0.008 -0.005 0.026 -0.308 -0.041 -0.005 -0.006 0.013c-0.159 0.333 -0.41 0.333 -0.505 0.333 -0.423 0 -0.616 -0.351 -0.616 -0.677 0 -0.315 0.191 -0.633 0.617 -0.633 0.131 0 0.368 0.043 0.492 0.329l0.007 0.016 0.04 -0.012 -0.026 -0.321 -0.011 -0.005c-0.199 -0.087 -0.359 -0.125 -0.52 -0.125 -0.26 0 -0.479 0.086 -0.636 0.248m1.405 0.073h-0.005l0 0.028 0.003 0.001c0.017 0.009 0.036 0.056 0.036 0.108l0 1.074h0.201l-0.001 -0.552 0.088 0.002c0.079 0.004 0.11 0.057 0.15 0.123l0.005 0.008 0.025 0.043c0.043 0.073 0.102 0.172 0.163 0.263 0.044 0.066 0.099 0.103 0.168 0.115 0.049 0.009 0.148 0.005 0.185 -0.006l0.044 -0.012 0.017 -0.004 -0.061 -0.019c-0.025 -0.008 -0.064 -0.025 -0.116 -0.085 -0.032 -0.037 -0.085 -0.121 -0.164 -0.247l-0.079 -0.125 -0.002 -0.002c-0.021 -0.031 -0.056 -0.08 -0.115 -0.112 0.113 -0.037 0.225 -0.141 0.225 -0.295 0 -0.044 -0.011 -0.128 -0.086 -0.199 -0.076 -0.072 -0.194 -0.109 -0.352 -0.109zm0.345 0.109c0.207 0.009 0.213 0.184 0.213 0.203 0 0.176 -0.13 0.238 -0.241 0.238l-0.081 -0.002V2.685a0.906 0.906 0 0 1 0.109 -0.002m1.717 -0.109h-0.006l0.004 0.03 0.002 0.001c0.018 0.009 0.034 0.052 0.034 0.089l-0.001 1.091h0.345c0.228 0 0.417 -0.071 0.546 -0.205a0.611 0.611 0 0 0 0.169 -0.419c0 -0.094 -0.032 -0.235 -0.12 -0.352 -0.119 -0.156 -0.308 -0.235 -0.561 -0.235zm0.239 0.116 0.108 0c0.029 0 0.101 0.002 0.152 0.01 0.339 0.051 0.376 0.339 0.376 0.46 0 0.099 -0.018 0.241 -0.102 0.35 -0.083 0.107 -0.212 0.162 -0.386 0.162 -0.041 0 -0.093 0 -0.149 -0.003zm1.271 -0.116h-0.237l0.001 0.029 0.003 0.001c0.022 0.011 0.036 0.05 0.036 0.1l0 1.08h0.202l0 -1.211zm4.07 0h-0.238l0.002 0.027 0.002 0.001c0.021 0.011 0.036 0.052 0.036 0.102v1.08h0.202l0 -1.211zm-5.841 0H2.742l0.004 0.028 0.002 0.001c0.018 0.009 0.038 0.052 0.038 0.108l0 1.074H3.462l0.049 -0.215 -0.027 -0.01 -0.008 0.012c-0.056 0.088 -0.113 0.1 -0.309 0.1 -0.07 0.001 -0.138 -0.005 -0.181 -0.009v-0.494h0.342v-0.109l-0.342 0v-0.377l0.277 0.003c0.062 0 0.131 0.06 0.137 0.096l0.001 0.004 0.028 -0.001 -0.005 -0.212H3.419zm8.657 0h-0.675l0.001 0.031 0.003 0.001c0.018 0.009 0.038 0.049 0.038 0.105l0 1.074h0.676l0.049 -0.215 -0.031 -0.009 -0.008 0.012c-0.056 0.088 -0.112 0.1 -0.306 0.1 -0.07 0.001 -0.138 -0.005 -0.181 -0.009v-0.494h0.342v-0.109l-0.342 0v-0.377l0.277 0.003c0.077 0 0.134 0.058 0.134 0.096v0.005l0.031 -0.002 -0.005 -0.212zm-5.172 -0.226c-0.071 0.051 -0.157 0.145 -0.158 0.303v0.005c0 0.194 0.124 0.296 0.323 0.398l-0.001 -0.002c0.005 0.004 0.023 0.013 0.077 0.041 0.167 0.084 0.287 0.144 0.287 0.314 0 0.058 -0.022 0.143 -0.084 0.204 -0.051 0.051 -0.121 0.076 -0.205 0.075 -0.254 -0.003 -0.344 -0.226 -0.371 -0.321l-0.005 -0.017 -0.043 0.007 0.012 0.317 0.009 0.005c0.081 0.047 0.217 0.126 0.412 0.128 0.138 0.001 0.278 -0.055 0.374 -0.15 0.085 -0.084 0.129 -0.19 0.129 -0.307 0 -0.257 -0.184 -0.353 -0.379 -0.455l-0.037 -0.019c-0.2 -0.1 -0.294 -0.161 -0.292 -0.287 0.001 -0.086 0.065 -0.221 0.234 -0.219 0.197 0.002 0.305 0.15 0.327 0.243l0.004 0.017 0.042 -0.005 -0.014 -0.274 -0.008 -0.005c-0.116 -0.079 -0.263 -0.088 -0.32 -0.089 -0.114 -0.001 -0.228 0.033 -0.314 0.095m2.682 0.533c-0.002 0.168 0.099 0.253 0.262 0.336l0.062 0.031c0.128 0.065 0.213 0.107 0.213 0.228 0 0.021 -0.004 0.094 -0.06 0.15 -0.039 0.038 -0.093 0.058 -0.16 0.057 -0.193 -0.002 -0.263 -0.152 -0.288 -0.241l-0.005 -0.017 -0.041 0.007 0.01 0.255 0.009 0.005c0.064 0.037 0.172 0.1 0.326 0.101 0.11 0.001 0.221 -0.043 0.297 -0.119 0.067 -0.067 0.103 -0.151 0.103 -0.244 0 -0.212 -0.147 -0.289 -0.302 -0.37l-0.027 -0.014c-0.167 -0.084 -0.225 -0.121 -0.224 -0.215 0.001 -0.066 0.05 -0.163 0.183 -0.161 0.162 0.002 0.233 0.119 0.248 0.181l0.004 0.017 0.041 -0.005 -0.012 -0.222 -0.008 -0.005c-0.093 -0.062 -0.209 -0.07 -0.254 -0.071 -0.181 -0.002 -0.374 0.109 -0.376 0.318m0.907 0c-0.002 0.168 0.099 0.253 0.262 0.336l0.061 0.031c0.129 0.065 0.213 0.107 0.213 0.228 0 0.021 -0.004 0.094 -0.06 0.15 -0.039 0.038 -0.093 0.058 -0.16 0.057 -0.193 -0.002 -0.263 -0.152 -0.288 -0.241l-0.005 -0.017 -0.041 0.007 0.01 0.255 0.009 0.005c0.064 0.037 0.172 0.1 0.326 0.101 0.11 0.001 0.221 -0.043 0.297 -0.119 0.067 -0.067 0.103 -0.151 0.103 -0.244 0 -0.212 -0.147 -0.289 -0.302 -0.37l-0.027 -0.014c-0.167 -0.084 -0.225 -0.121 -0.224 -0.215a0.165 0.165 0 0 1 0.049 -0.113c0.033 -0.032 0.079 -0.049 0.134 -0.048 0.162 0.002 0.233 0.119 0.248 0.181l0.004 0.017 0.041 -0.005 -0.012 -0.222 -0.008 -0.005c-0.093 -0.062 -0.209 -0.07 -0.254 -0.071 -0.181 -0.002 -0.374 0.109 -0.376 0.318m-1.736 -0.307 -0.159 0.001 0.003 0.027 0.002 0.001c0.008 0.004 0.034 0.023 0.034 0.1l0.001 0.688c0 0.133 -0.049 0.292 -0.282 0.292 -0.22 0 -0.265 -0.132 -0.265 -0.329l0 -0.78h-0.252l0.002 0.027 0.002 0.001c0.016 0.009 0.043 0.04 0.043 0.106v0.645c0 0.401 0.263 0.447 0.462 0.447 0.097 0 0.413 -0.029 0.413 -0.407l0.001 -0.821zm5.057 -0.345c0.142 0.046 0.293 0.11 0.452 0.198 -0.389 -0.643 -1.085 -1.343 -1.768 -1.796 0.176 0.174 0.462 0.558 0.536 0.969 0.28 0.199 0.544 0.411 0.78 0.628m0 0c-0.334 -0.107 -0.618 -0.113 -0.829 -0.091 0.074 -0.174 0.082 -0.358 0.05 -0.536 -0.517 -0.368 -1.086 -0.694 -1.634 -0.926 0.402 0.272 0.845 1.057 1.031 1.899 0.396 -0.117 1.006 -0.198 1.792 0.066 -0.124 -0.138 -0.261 -0.276 -0.41 -0.412"/><path fill="none" d="M13.034 1.6c0.032 0.179 0.025 0.363 -0.05 0.537 0.211 -0.022 0.496 -0.016 0.83 0.091 -0.236 -0.217 -0.5 -0.429 -0.78 -0.628"/></svg>