<svg version="1.1" id="Layer_1" xmlns="http://www.w3.org/2000/svg" xmlns:xlink="http://www.w3.org/1999/xlink" x="0px" y="0px"
	 width="100%" viewBox="0 0 2000 462" enable-background="new 0 0 2000 462" xml:space="preserve">
<path fill="#FFFFFF" opacity="0.000000" stroke="none" 
	d="
M229.000000,1.000000 
	C819.612793,1.000000 1410.225586,1.000000 2000.919189,1.000000 
	C2000.919189,154.932053 2000.919189,308.864166 2000.919189,462.898132 
	C1334.333374,462.898132 667.666687,462.898132 1.000003,462.892151 
	C1.000000,387.559875 1.000000,312.233551 1.378138,236.623566 
	C2.160787,240.249283 2.147492,244.256912 3.039784,248.051605 
	C7.714140,267.930511 14.196982,287.081390 23.443357,305.462433 
	C31.122972,320.728882 40.548168,334.801758 51.444126,347.542328 
	C62.597485,360.583832 75.005486,372.746948 89.609718,382.416748 
	C104.693657,392.404114 120.238762,401.413055 137.243393,407.553833 
	C155.298859,414.074005 173.660126,419.473694 193.218399,419.040588 
	C204.045273,418.800812 214.883682,419.119202 225.713287,418.951843 
	C232.142334,418.852509 238.831802,419.328217 244.936493,417.743622 
	C259.830048,413.877655 274.740631,409.728943 289.117950,404.299988 
	C313.905670,394.940002 335.476410,379.974243 354.544006,361.816956 
	C368.582794,348.448395 380.022858,332.794891 390.219788,316.166840 
	C399.886475,300.403503 406.594818,283.428040 411.763733,265.958038 
	C415.229889,254.242966 416.166382,241.758560 417.981049,229.580566 
	C420.832062,210.447845 419.083099,191.328751 415.620911,172.565582 
	C413.012390,158.428772 408.193726,144.677979 404.009369,130.861206 
	C401.088043,121.214912 396.757629,113.223038 384.548004,112.572479 
	C377.350494,112.188988 369.876373,114.310341 365.871002,120.456154 
	C360.653564,128.461700 362.933594,136.267227 366.382446,143.986389 
	C374.136475,161.341293 378.392883,179.691620 379.715759,198.449600 
	C380.566315,210.509995 378.901550,222.783661 377.939148,234.928040 
	C376.274353,255.935715 367.845947,274.895508 357.991272,292.960449 
	C351.936798,304.059052 343.717194,314.174622 335.379517,323.785797 
	C320.828400,340.559509 303.281799,353.859680 283.373932,363.765259 
	C270.691437,370.075714 257.346191,374.759766 243.466568,377.826752 
	C227.042542,381.455933 210.368576,381.438293 193.728165,380.840393 
	C186.814148,380.591980 179.729538,379.445953 173.129364,377.397369 
	C162.536636,374.109558 151.871613,371.187256 141.613525,366.487061 
	C126.036324,359.349731 111.998329,350.118195 99.048660,339.270172 
	C86.268608,328.564178 75.763824,315.518463 66.541405,301.696014 
	C51.629219,279.345764 42.544235,254.455673 40.305042,227.776993 
	C38.740417,209.135422 39.645210,190.334152 43.878693,171.736877 
	C51.155590,139.770203 66.766296,112.607544 89.418228,89.366508 
	C94.950310,83.690567 101.957466,79.468849 108.175529,74.441360 
	C119.784409,65.055252 132.737488,57.887913 146.396378,52.153316 
	C161.959473,45.619251 178.337097,41.279327 195.147797,40.203018 
	C214.518295,38.962814 233.934143,39.810516 252.803925,45.380898 
	C260.279114,47.587585 270.945190,44.251343 275.026337,38.005825 
	C280.790283,29.185087 278.574707,15.215881 269.751587,11.072574 
	C263.784515,8.270466 257.196320,6.627547 250.739410,5.075900 
	C243.579895,3.355412 236.253647,2.328768 229.000000,1.000000 
M628.274048,86.922134 
	C626.942505,86.959541 625.568298,86.794220 624.285645,87.064087 
	C593.929077,93.451050 567.060303,105.978706 546.313782,130.037781 
	C535.083679,143.060974 526.513367,157.465591 521.052429,173.649277 
	C513.099976,197.216568 510.438660,221.380142 512.872192,246.251480 
	C514.812561,266.082581 519.640442,284.813263 528.810669,302.593079 
	C544.569214,333.146729 568.866394,353.528961 600.976318,365.044342 
	C624.997192,373.658783 649.750305,374.471191 674.807739,372.002930 
	C694.950623,370.018799 713.867859,364.081482 731.371826,353.912689 
	C752.683594,341.531830 768.930054,324.241974 780.211731,302.353973 
	C788.088318,287.072235 792.814697,270.858093 795.128052,253.768387 
	C797.466125,236.495956 797.633667,219.384399 795.065125,202.145355 
	C792.310974,183.660095 786.886414,166.180450 777.492493,149.942856 
	C762.237366,123.573769 740.194275,105.039062 711.980408,94.145805 
	C685.179504,83.798080 657.238586,83.116852 628.274048,86.922134 
M1083.000000,268.500122 
	C1083.000000,301.250641 1083.000000,334.001190 1083.000000,366.644165 
	C1099.371460,366.644165 1115.097046,366.644165 1131.000000,366.644165 
	C1131.000000,364.467255 1131.000000,362.645477 1131.000000,360.823700 
	C1131.000000,323.667633 1131.110107,286.510986 1130.909912,249.355972 
	C1130.868408,241.674271 1130.405762,233.849533 1128.878052,226.347168 
	C1123.318970,199.048279 1107.753784,180.182510 1081.006836,170.886215 
	C1068.546509,166.555466 1055.769775,166.817581 1042.955444,167.037582 
	C1028.619507,167.283691 1015.521362,171.734192 1003.299805,179.145828 
	C994.285645,184.612366 987.936157,192.594421 982.016663,201.255173 
	C961.617188,157.974197 891.134460,155.672440 864.998047,192.123871 
	C864.998047,184.760071 864.998047,178.066940 864.998047,171.283997 
	C849.774841,171.283997 835.050293,171.283997 820.303101,171.283997 
	C820.303101,236.616013 820.303101,301.663574 820.303101,366.662811 
	C836.333679,366.662811 852.058838,366.662811 868.000000,366.662811 
	C868.000000,364.510010 868.000000,362.693237 868.000000,360.876434 
	C868.000000,327.219360 867.685547,293.557281 868.220154,259.908722 
	C868.354553,251.456604 870.360046,242.768707 873.007141,234.680588 
	C877.669739,220.434616 895.061890,208.029099 916.662964,210.832901 
	C933.119568,212.968994 943.637207,221.582825 948.284790,236.986206 
	C950.516968,244.384216 951.753662,252.353333 951.839050,260.081512 
	C952.212830,293.901093 952.000000,327.727112 952.000000,361.550812 
	C952.000000,363.304626 952.000000,365.058472 952.000000,366.616638 
	C968.093994,366.616638 983.487122,366.616638 999.000000,366.616638 
	C999.000000,330.913757 998.772095,295.591492 999.179321,260.276550 
	C999.267883,252.590805 1000.600098,244.567947 1003.152161,237.332672 
	C1009.116882,220.422302 1027.293457,207.602005 1049.852905,210.851425 
	C1066.574097,213.259872 1077.827881,223.857941 1080.814087,239.516495 
	C1082.556152,248.651138 1082.336914,258.159821 1083.000000,268.500122 
M1206.758667,363.942993 
	C1208.743286,364.634155 1210.741699,365.288025 1212.710205,366.022491 
	C1225.744019,370.885315 1239.302124,371.300446 1252.994507,371.040253 
	C1268.594849,370.743713 1282.901733,366.176025 1295.700928,357.574463 
	C1302.332642,353.117828 1307.995850,347.220123 1314.308105,341.791473 
	C1314.308105,350.082214 1314.308105,358.485138 1314.308105,366.763702 
	C1329.366821,366.763702 1343.973511,366.763702 1358.758423,366.763702 
	C1358.758423,274.822449 1358.758423,183.117584 1358.758423,91.274673 
	C1342.792236,91.274673 1327.068726,91.274673 1311.500000,91.274673 
	C1311.500000,125.842522 1311.500000,160.134903 1311.500000,193.675644 
	C1306.144775,189.304565 1300.751465,184.116302 1294.619873,180.037781 
	C1271.776245,164.843033 1246.538818,163.923691 1220.890381,169.768845 
	C1201.451050,174.198990 1185.463135,184.801926 1172.798218,200.554138 
	C1159.689819,216.857788 1152.749146,235.612427 1151.299438,256.012848 
	C1150.371094,269.077454 1151.423950,282.472961 1153.219482,295.495270 
	C1155.745483,313.816498 1164.310791,329.720795 1176.867676,343.288818 
	C1185.073242,352.155151 1195.146606,358.523468 1206.758667,363.942993 
M1874.037598,209.463058 
	C1885.192017,209.315979 1896.411377,208.373688 1907.480225,209.276688 
	C1916.132324,209.982513 1924.516479,213.083313 1931.488647,218.964478 
	C1941.370117,227.299774 1943.950439,238.175034 1942.804077,250.825241 
	C1929.645142,244.557358 1915.720825,240.982880 1901.434326,240.207474 
	C1885.690674,239.353012 1869.771606,238.921585 1854.395264,244.007355 
	C1839.685547,248.872543 1826.868896,256.505707 1817.939209,269.491638 
	C1808.123779,283.766052 1805.276611,299.548920 1807.921387,316.649872 
	C1811.601807,340.448456 1825.343018,355.415253 1847.255859,364.168945 
	C1860.747437,369.558563 1874.633179,370.337494 1888.822144,370.025848 
	C1904.353882,369.684753 1918.687134,365.376038 1931.553345,356.794281 
	C1937.675903,352.710571 1943.156006,347.663452 1949.071289,342.937408 
	C1949.071289,350.615692 1949.071289,358.649048 1949.071289,366.679443 
	C1963.294678,366.679443 1977.022339,366.679443 1991.000000,366.679443 
	C1991.000000,364.550842 1991.000000,362.736542 1991.000000,360.922241 
	C1991.000000,322.257660 1991.042969,283.593018 1990.955200,244.928635 
	C1990.941406,238.837204 1990.765625,232.686707 1989.921143,226.667877 
	C1987.499878,209.414001 1979.435547,195.427933 1965.435669,184.720901 
	C1949.444702,172.490997 1930.737549,168.353683 1911.493164,167.260590 
	C1894.080200,166.271515 1876.385376,165.528198 1859.208130,170.073135 
	C1846.280273,173.493683 1833.521118,177.552048 1820.725708,181.315094 
	C1825.026123,195.464890 1828.910400,208.245117 1832.771362,220.948929 
	C1835.139404,220.101349 1836.782715,219.371155 1838.499512,218.921555 
	C1850.079102,215.888916 1861.674316,212.915710 1874.037598,209.463058 
M1441.447510,310.961975 
	C1435.867798,304.051025 1431.869873,296.462738 1430.908813,286.964722 
	C1479.756104,286.964722 1528.162598,286.964722 1576.535645,286.964722 
	C1577.050903,281.666046 1578.219971,276.734650 1577.865234,271.915405 
	C1576.928833,259.194519 1576.548584,246.247360 1573.755981,233.885162 
	C1566.930420,203.668518 1549.333374,182.023483 1519.368042,171.818069 
	C1500.424927,165.366531 1480.988281,165.309967 1461.527832,169.019684 
	C1424.180420,176.139175 1399.087891,197.799667 1386.820679,233.726578 
	C1380.878784,251.128540 1380.334351,269.134430 1382.875732,287.393158 
	C1385.997437,309.820526 1394.653320,329.141907 1411.287231,344.913330 
	C1428.123779,360.876801 1448.426880,368.971161 1470.964722,370.781586 
	C1494.005493,372.632355 1516.838135,370.531982 1538.454346,361.034515 
	C1550.272705,355.841919 1560.838867,349.055237 1569.181396,338.965240 
	C1561.399536,328.084290 1553.785034,317.437347 1546.095581,306.685608 
	C1543.121460,308.999115 1540.647705,311.150024 1537.955811,312.980133 
	C1521.855103,323.926514 1504.126099,329.399963 1484.568359,329.037659 
	C1468.016113,328.731049 1453.478760,323.844330 1441.447510,310.961975 
M135.481018,334.056641 
	C139.152863,336.113403 142.761078,338.294891 146.507401,340.205627 
	C163.928391,349.091003 182.595642,353.660736 201.967941,354.869995 
	C216.613831,355.784210 231.108124,353.986542 245.433090,350.350372 
	C266.146729,345.092621 284.308502,335.385712 300.869507,321.931519 
	C320.032867,306.363190 334.266846,287.213623 343.952240,264.779846 
	C351.330048,247.690964 354.656799,229.444397 354.819580,210.858887 
	C354.890717,202.735107 352.894165,194.606995 352.052246,186.458572 
	C350.324402,169.736130 343.827759,154.614105 336.471466,139.806870 
	C331.904694,130.614532 320.909302,129.585068 312.265747,134.082764 
	C305.754272,137.471054 303.167145,147.161591 305.914032,153.917191 
	C307.983032,159.005630 310.291290,163.996429 312.385376,169.075089 
	C319.714508,186.850449 322.312317,205.529449 319.724121,224.359787 
	C317.155182,243.049622 310.925751,260.807495 298.576721,275.707489 
	C293.743103,281.539581 289.125214,287.745697 283.402954,292.593994 
	C277.018005,298.003784 269.718964,302.467072 262.410828,306.627502 
	C246.880859,315.468719 230.003647,320.254761 212.155991,320.918182 
	C198.670074,321.419464 185.659790,319.038300 172.907669,314.101257 
	C157.564255,308.160980 143.148056,300.878418 131.654129,289.011017 
	C117.022430,273.903870 106.114883,256.377808 101.456558,235.643280 
	C99.527603,227.057404 97.966415,218.087723 98.304726,209.372833 
	C98.693703,199.352417 100.504684,189.174988 103.247818,179.505402 
	C107.964920,162.877563 116.294250,147.969086 127.771019,134.855591 
	C138.365875,122.749748 151.437210,114.422585 166.037460,108.030464 
	C177.968033,102.807159 190.302429,99.774017 203.277786,98.905258 
	C206.602844,98.682632 210.282028,98.016983 213.046814,96.325882 
	C219.212341,92.554680 222.163895,83.788116 220.177689,78.494995 
	C216.112579,67.661591 208.591125,65.335175 200.371201,66.117111 
	C193.379776,66.782188 186.296570,67.437012 179.514938,69.137268 
	C168.367661,71.932060 157.128693,74.817940 146.507355,79.101158 
	C138.767975,82.222191 131.412140,86.970680 124.867867,92.218826 
	C115.286636,99.902443 105.980492,108.130959 97.715515,117.184731 
	C91.979332,123.468369 88.103134,131.475845 83.550629,138.809189 
	C71.047585,158.949600 66.551834,181.474594 65.213264,204.625748 
	C64.627960,214.748856 65.688255,225.104462 67.211067,235.171478 
	C68.588135,244.274948 70.535683,253.590637 74.137688,261.995941 
	C81.300995,278.711578 90.112305,294.656708 103.228035,307.701416 
	C112.940796,317.361603 122.810463,326.844086 135.481018,334.056641 
M1741.000000,339.500000 
	C1741.000000,348.590942 1741.000000,357.681915 1741.000000,366.642212 
	C1757.379639,366.642212 1773.103149,366.642212 1789.000000,366.642212 
	C1789.000000,364.463135 1789.000000,362.641174 1789.000000,360.819214 
	C1789.000000,323.503448 1789.082031,286.187408 1788.962891,248.872025 
	C1788.908936,231.996490 1785.321533,215.917740 1776.653687,201.236053 
	C1763.794800,179.456192 1743.651855,169.418106 1719.387573,167.205948 
	C1709.408691,166.296158 1699.173096,167.166672 1689.143921,168.145996 
	C1679.908203,169.047867 1670.839722,171.746735 1663.314087,177.375229 
	C1655.766602,183.020035 1648.895630,189.569275 1641.777100,195.680069 
	C1641.777100,187.966721 1641.777100,179.577545 1641.777100,171.373688 
	C1626.588501,171.373688 1611.864014,171.373688 1597.380127,171.373688 
	C1597.380127,236.787384 1597.380127,301.826904 1597.380127,366.765686 
	C1613.365967,366.765686 1628.970947,366.765686 1644.999390,366.765686 
	C1644.999390,365.600616 1644.991455,364.633911 1645.000610,363.667328 
	C1645.332642,328.588867 1645.546387,293.508606 1646.064697,258.432861 
	C1646.247314,246.070038 1651.205200,235.307510 1659.384521,226.184265 
	C1670.847778,213.398300 1685.714844,208.802124 1702.362061,210.134583 
	C1711.703247,210.882248 1720.446289,214.111603 1727.406494,220.912201 
	C1737.129272,230.411758 1740.562134,242.704483 1740.825684,255.542618 
	C1741.392944,283.184631 1741.000000,310.846344 1741.000000,339.500000 
M184.563431,265.001160 
	C187.701187,265.000427 190.844498,265.121185 193.975769,264.978363 
	C208.973404,264.294159 223.546783,248.127899 221.803375,233.111801 
	C220.314087,220.284698 216.037140,206.580032 197.048843,202.603546 
	C189.990891,201.125488 182.383957,200.632996 175.885895,204.085846 
	C163.993881,210.404846 157.859665,220.476700 157.888336,234.420532 
	C157.915482,247.621063 169.205276,263.225952 184.563431,265.001160 
M190.988007,133.749176 
	C187.419846,147.522720 192.060333,160.184906 204.772308,164.756363 
	C217.109940,169.193161 230.630295,164.980774 236.118500,150.269318 
	C240.314117,139.022659 236.177353,123.511421 221.193558,118.829346 
	C210.672089,115.541641 195.802383,118.527512 190.988007,133.749176 
M233.803955,263.367065 
	C235.393890,265.625763 236.940643,267.916351 238.581573,270.137360 
	C244.162186,277.690857 252.288498,279.171356 260.589783,277.762665 
	C268.930786,276.347321 275.960510,271.547913 278.878418,263.238617 
	C282.173492,253.855377 279.792999,243.586182 270.750763,236.317154 
	C261.149872,228.599030 245.067535,229.153473 237.615585,239.978180 
	C232.883011,246.852692 231.285507,254.496658 233.803955,263.367065 
M142.369370,158.040009 
	C138.254211,164.833389 137.735855,172.009949 141.010086,179.126648 
	C144.350113,186.386429 149.504623,190.942596 158.355103,191.392227 
	C167.284225,191.845871 175.811508,189.019791 180.305176,180.472794 
	C185.927917,169.778290 182.087296,156.075729 171.280777,149.949890 
	C161.819748,144.586777 148.707458,148.098618 142.369370,158.040009 
M259.021912,180.477676 
	C251.496826,187.045410 250.698837,195.977646 254.426010,205.095932 
	C257.539337,212.712509 266.451416,218.403427 274.821228,217.965256 
	C283.889526,217.490524 290.420288,213.056519 294.127319,204.719910 
	C297.863464,196.317749 296.620758,188.369370 290.922852,181.399323 
	C282.892212,171.575699 266.493469,170.988358 259.021912,180.477676 
M378.075836,62.055916 
	C378.205444,65.018661 377.670441,68.204803 378.578400,70.905914 
	C382.762604,83.353783 393.681244,89.004356 406.064514,85.051941 
	C411.207367,83.410469 416.841705,79.223900 419.432800,74.610893 
	C423.522766,67.329369 421.922821,59.022743 416.717072,52.195251 
	C410.686218,44.285667 402.212616,42.242748 393.011169,44.636528 
	C384.740784,46.788109 380.531860,53.311668 378.075836,62.055916 
M339.602295,61.106709 
	C335.597961,47.923985 325.404144,43.414646 312.601288,47.034859 
	C309.055878,48.037376 305.355438,50.531425 303.015076,53.394707 
	C293.968719,64.462372 296.447723,78.924469 310.551880,86.173584 
	C317.961426,89.981857 331.297089,87.068352 335.873840,80.574852 
	C339.943085,74.801376 342.117554,68.871078 339.602295,61.106709 
M266.070618,138.856277 
	C274.765076,134.585144 275.669373,126.712219 274.902374,120.267700 
	C274.293182,115.148911 268.859314,109.744804 261.181091,108.141647 
	C251.563721,106.133598 240.029892,115.338951 241.130630,124.206833 
	C242.832703,137.918915 254.789597,144.037506 266.070618,138.856277 
M141.838226,243.806900 
	C142.885956,242.744492 143.889313,241.633560 144.988998,240.628006 
	C150.047958,236.002075 150.944748,226.115128 146.426315,219.889297 
	C142.395645,214.335480 130.007080,211.405746 124.684174,215.103531 
	C118.952248,219.085449 115.866234,224.903809 117.108795,231.991470 
	C118.191696,238.168365 121.415215,243.600388 127.997849,244.820984 
	C132.170532,245.594711 136.712830,244.374985 141.838226,243.806900 
M216.199402,177.158264 
	C210.304901,182.291077 207.260605,188.389633 210.066879,196.261215 
	C211.839478,201.233353 218.216614,204.214218 226.070251,203.995514 
	C233.402069,203.791351 239.603760,194.801056 237.674957,187.292526 
	C235.447983,178.623291 228.047897,173.606277 216.199402,177.158264 
M419.714447,16.099136 
	C418.222229,16.068548 416.705109,16.201328 415.242310,15.978072 
	C409.927521,15.166933 405.934937,18.387915 404.458801,26.168247 
	C403.548737,30.964811 406.924835,36.330475 411.702271,38.013065 
	C417.209473,39.952663 423.487427,37.559845 425.899017,32.602051 
	C428.702087,26.839319 426.494293,20.545757 419.714447,16.099136 
M294.683350,100.763329 
	C295.874969,95.500275 294.105286,90.934761 289.660248,88.535583 
	C287.015533,87.108116 282.786499,86.867859 279.947998,87.921318 
	C274.497772,89.944061 272.981293,94.237572 274.028381,100.464859 
	C274.694427,104.426041 279.248535,108.839622 283.867401,108.769585 
	C288.622833,108.697495 292.749817,106.651627 294.683350,100.763329 
M212.501999,281.980865 
	C213.928528,282.765106 215.289917,283.716217 216.793488,284.303101 
	C221.791595,286.253967 225.451294,283.834625 228.357178,280.162018 
	C231.063446,276.741730 231.501709,272.551910 229.348862,268.878387 
	C226.605316,264.196991 215.689270,263.625641 210.940552,267.486420 
	C208.082047,269.810394 208.629471,277.373474 212.501999,281.980865 
M255.600204,158.116730 
	C252.563858,152.905365 247.500275,151.299500 242.289444,153.895325 
	C237.824951,156.119354 236.448471,161.867950 238.707825,167.335312 
	C240.626129,171.977417 245.623428,173.815948 251.423676,171.758835 
	C256.093933,170.102432 257.942230,164.152924 255.600204,158.116730 
M358.517487,58.007885 
	C352.965973,58.008636 349.012329,61.833675 349.006042,67.209915 
	C348.999237,73.038239 352.538086,76.837578 358.117279,76.991776 
	C364.498901,77.168152 368.391541,74.057030 368.875977,68.393066 
	C369.355530,62.786449 365.299530,58.351440 358.517487,58.007885 
M379.969940,37.515526 
	C382.084534,36.074234 384.651062,35.005524 386.214233,33.109612 
	C388.973755,29.762690 388.818817,25.767475 386.541168,22.129053 
	C384.318909,18.579048 378.653839,16.540726 374.703308,18.284983 
	C371.214264,19.825489 368.871826,22.605404 368.947296,26.991304 
	C369.069855,34.118382 369.605072,34.840378 379.969940,37.515526 
M135.161057,203.983597 
	C139.670563,201.954346 140.466263,198.168259 139.981781,193.781158 
	C139.509384,189.503403 136.250275,187.770981 132.861053,186.469711 
	C129.287979,185.097809 126.151123,186.214661 123.474785,188.974411 
	C120.711067,191.824265 119.962540,197.631729 122.086403,201.229462 
	C124.275246,204.937286 128.277786,205.902374 135.161057,203.983597 
M426.069122,79.936531 
	C426.379669,81.859184 426.409637,83.882256 427.054840,85.685150 
	C428.802032,90.567299 435.042114,92.618744 440.303955,90.232185 
	C444.895538,88.149635 447.064270,82.636024 444.978546,78.347763 
	C441.390137,70.969940 432.087830,71.388626 426.069122,79.936531 
M159.945450,263.485321 
	C159.637604,262.396118 159.400269,261.280975 159.009979,260.222137 
	C157.115723,255.083115 152.721130,255.700623 148.718613,256.104736 
	C145.074600,256.472626 144.377884,259.488647 143.990845,262.578949 
	C143.513123,266.393494 146.061218,268.045105 148.913422,268.917786 
	C153.663116,270.371002 157.519135,268.526611 159.945450,263.485321 
M262.158844,98.355270 
	C262.357361,95.995811 263.447052,93.151825 262.502167,91.414032 
	C261.569122,89.697914 258.684479,88.688095 256.463715,88.119743 
	C253.881256,87.458824 251.207840,87.743904 249.950073,90.930336 
	C248.411957,94.826927 249.347900,98.191528 252.807648,100.154160 
	C255.664429,101.774750 259.021576,102.009407 262.158844,98.355270 
M334.910797,95.517410 
	C337.592865,99.082008 340.913544,98.526001 344.035675,96.519028 
	C346.536835,94.911201 347.944763,92.383972 346.627838,89.279320 
	C345.101135,85.680023 342.699036,83.330132 338.320496,83.957687 
	C334.239197,84.542648 332.625732,88.957359 334.910797,95.517410 
M238.717270,225.922089 
	C239.634232,226.266144 240.527222,226.804474 241.472244,226.921066 
	C245.882614,227.465103 248.825531,224.981766 248.972382,220.566635 
	C249.140182,215.522263 247.784576,213.738678 241.618011,213.059265 
	C238.232025,212.686234 235.778534,215.797531 236.098801,220.150223 
	C236.232086,221.961761 237.367462,223.699570 238.717270,225.922089 
M157.512695,206.990814 
	C158.176300,201.335037 154.854919,197.647659 150.341644,199.471619 
	C148.570709,200.187317 146.429489,202.466476 146.323349,204.151199 
	C146.208374,205.976013 148.048706,209.312241 149.431976,209.535278 
	C151.827759,209.921570 154.528595,208.416107 157.512695,206.990814 
M340.440033,33.953918 
	C340.348816,28.934057 336.637573,29.852716 333.688416,30.080750 
	C330.606445,30.319048 330.011200,32.558331 329.932129,35.380444 
	C329.824463,39.225140 332.569702,39.635723 335.079559,39.906689 
	C338.708099,40.298431 341.013611,38.650944 340.440033,33.953918 
M440.115540,56.499752 
	C438.192352,53.937923 436.099457,52.889572 433.191315,55.266556 
	C430.657593,57.337521 430.073975,59.961418 432.208984,62.077579 
	C433.529114,63.386101 436.440887,64.166534 438.232117,63.682213 
	C441.307617,62.850639 441.539612,59.972141 440.115540,56.499752 
M366.841370,49.591843 
	C367.331024,49.143757 368.034363,48.786076 368.269501,48.230301 
	C368.919739,46.693577 370.267822,44.534954 369.707886,43.607395 
	C368.745911,42.013683 366.662109,40.595425 364.821442,40.219791 
	C363.696320,39.990189 361.710907,41.555416 360.869995,42.819065 
	C358.572845,46.271019 360.929169,49.316319 366.841370,49.591843 
M197.979050,187.678482 
	C197.335953,183.891068 194.429123,183.261703 191.741043,184.330872 
	C190.377563,184.873184 189.008865,187.769211 189.270157,189.328400 
	C189.506149,190.736649 191.817642,192.493988 193.463669,192.814484 
	C196.315811,193.369827 198.132721,191.685287 197.979050,187.678482 
M291.038513,79.896156 
	C293.219086,78.712280 295.309204,77.095741 293.130737,74.657776 
	C291.889008,73.268097 289.485870,72.424591 287.571533,72.360825 
	C286.765869,72.333992 285.188232,74.940842 285.158051,76.375656 
	C285.091644,79.530556 287.481476,80.237679 291.038513,79.896156 
z"/>
<path fill="#2C38AF" opacity="1.000000" stroke="none" 
	d="
M228.531342,1.000000 
	C236.253647,2.328768 243.579895,3.355412 250.739410,5.075900 
	C257.196320,6.627547 263.784515,8.270466 269.751587,11.072574 
	C278.574707,15.215881 280.790283,29.185087 275.026337,38.005825 
	C270.945190,44.251343 260.279114,47.587585 252.803925,45.380898 
	C233.934143,39.810516 214.518295,38.962814 195.147797,40.203018 
	C178.337097,41.279327 161.959473,45.619251 146.396378,52.153316 
	C132.737488,57.887913 119.784409,65.055252 108.175529,74.441360 
	C101.957466,79.468849 94.950310,83.690567 89.418228,89.366508 
	C66.766296,112.607544 51.155590,139.770203 43.878693,171.736877 
	C39.645210,190.334152 38.740417,209.135422 40.305042,227.776993 
	C42.544235,254.455673 51.629219,279.345764 66.541405,301.696014 
	C75.763824,315.518463 86.268608,328.564178 99.048660,339.270172 
	C111.998329,350.118195 126.036324,359.349731 141.613525,366.487061 
	C151.871613,371.187256 162.536636,374.109558 173.129364,377.397369 
	C179.729538,379.445953 186.814148,380.591980 193.728165,380.840393 
	C210.368576,381.438293 227.042542,381.455933 243.466568,377.826752 
	C257.346191,374.759766 270.691437,370.075714 283.373932,363.765259 
	C303.281799,353.859680 320.828400,340.559509 335.379517,323.785797 
	C343.717194,314.174622 351.936798,304.059052 357.991272,292.960449 
	C367.845947,274.895508 376.274353,255.935715 377.939148,234.928040 
	C378.901550,222.783661 380.566315,210.509995 379.715759,198.449600 
	C378.392883,179.691620 374.136475,161.341293 366.382446,143.986389 
	C362.933594,136.267227 360.653564,128.461700 365.871002,120.456154 
	C369.876373,114.310341 377.350494,112.188988 384.548004,112.572479 
	C396.757629,113.223038 401.088043,121.214912 404.009369,130.861206 
	C408.193726,144.677979 413.012390,158.428772 415.620911,172.565582 
	C419.083099,191.328751 420.832062,210.447845 417.981049,229.580566 
	C416.166382,241.758560 415.229889,254.242966 411.763733,265.958038 
	C406.594818,283.428040 399.886475,300.403503 390.219788,316.166840 
	C380.022858,332.794891 368.582794,348.448395 354.544006,361.816956 
	C335.476410,379.974243 313.905670,394.940002 289.117950,404.299988 
	C274.740631,409.728943 259.830048,413.877655 244.936493,417.743622 
	C238.831802,419.328217 232.142334,418.852509 225.713287,418.951843 
	C214.883682,419.119202 204.045273,418.800812 193.218399,419.040588 
	C173.660126,419.473694 155.298859,414.074005 137.243393,407.553833 
	C120.238762,401.413055 104.693657,392.404114 89.609718,382.416748 
	C75.005486,372.746948 62.597485,360.583832 51.444126,347.542328 
	C40.548168,334.801758 31.122972,320.728882 23.443357,305.462433 
	C14.196982,287.081390 7.714140,267.930511 3.039784,248.051605 
	C2.147492,244.256912 2.160787,240.249283 1.378138,236.169952 
	C1.000000,219.312439 1.000000,202.624878 1.378158,185.298737 
	C4.145464,173.119308 6.159904,161.484528 9.024016,150.062805 
	C12.197150,137.408737 17.788347,125.726898 23.659199,114.013779 
	C31.503557,98.363266 40.759552,83.909569 53.007465,71.577301 
	C65.552422,58.945942 77.061493,45.074451 93.492676,36.786175 
	C105.792648,30.581776 117.445953,23.068975 129.860428,17.127586 
	C137.749176,13.352143 146.429794,11.127804 154.894730,8.692540 
	C161.651657,6.748657 168.607346,5.481070 175.497131,4.018491 
	C180.646301,2.925416 185.831085,2.000047 191.000000,0.999999 
	C203.354233,1.000000 215.708450,1.000000 228.531342,1.000000 
z"/>
<path fill="#FFFFFF" opacity="0.000000" stroke="none" 
	d="
M190.531342,0.999999 
	C185.831085,2.000047 180.646301,2.925416 175.497131,4.018491 
	C168.607346,5.481070 161.651657,6.748657 154.894730,8.692540 
	C146.429794,11.127804 137.749176,13.352143 129.860428,17.127586 
	C117.445953,23.068975 105.792648,30.581776 93.492676,36.786175 
	C77.061493,45.074451 65.552422,58.945942 53.007465,71.577301 
	C40.759552,83.909569 31.503557,98.363266 23.659199,114.013779 
	C17.788347,125.726898 12.197150,137.408737 9.024016,150.062805 
	C6.159904,161.484528 4.145464,173.119308 1.378158,184.830078 
	C1.000000,123.738472 1.000000,62.476940 1.000000,1.000000 
	C64.020729,1.000000 127.041710,1.000000 190.531342,0.999999 
z"/>
<path fill="#2C39B1" opacity="1.000000" stroke="none" 
	d="
M628.658447,86.689209 
	C657.238586,83.116852 685.179504,83.798080 711.980408,94.145805 
	C740.194275,105.039062 762.237366,123.573769 777.492493,149.942856 
	C786.886414,166.180450 792.310974,183.660095 795.065125,202.145355 
	C797.633667,219.384399 797.466125,236.495956 795.128052,253.768387 
	C792.814697,270.858093 788.088318,287.072235 780.211731,302.353973 
	C768.930054,324.241974 752.683594,341.531830 731.371826,353.912689 
	C713.867859,364.081482 694.950623,370.018799 674.807739,372.002930 
	C649.750305,374.471191 624.997192,373.658783 600.976318,365.044342 
	C568.866394,353.528961 544.569214,333.146729 528.810669,302.593079 
	C519.640442,284.813263 514.812561,266.082581 512.872192,246.251480 
	C510.438660,221.380142 513.099976,197.216568 521.052429,173.649277 
	C526.513367,157.465591 535.083679,143.060974 546.313782,130.037781 
	C567.060303,105.978706 593.929077,93.451050 624.285645,87.064087 
	C625.568298,86.794220 626.942505,86.959541 628.658447,86.689209 
M692.009277,138.511795 
	C674.020325,131.011124 655.582764,129.189011 636.339539,132.896439 
	C608.469666,138.265884 588.117188,153.435852 574.976074,178.360794 
	C563.083313,200.917923 561.440735,225.217438 565.248840,249.737717 
	C568.782288,272.488953 578.566284,292.387024 596.882507,307.487396 
	C611.803284,319.788513 629.152832,325.746277 647.977844,326.729736 
	C657.996704,327.253113 668.392639,326.020325 678.213928,323.795197 
	C703.202087,318.133759 721.527283,303.070282 733.639465,280.684784 
	C745.946655,257.938690 747.518066,233.277435 743.769775,208.408890 
	C740.220947,184.863586 729.971680,164.292709 710.671570,149.379562 
	C705.231079,145.175674 698.706421,142.374893 692.009277,138.511795 
z"/>
<path fill="#2C39B1" opacity="1.000000" stroke="none" 
	d="
M1083.000000,268.000183 
	C1082.336914,258.159821 1082.556152,248.651138 1080.814087,239.516495 
	C1077.827881,223.857941 1066.574097,213.259872 1049.852905,210.851425 
	C1027.293457,207.602005 1009.116882,220.422302 1003.152161,237.332672 
	C1000.600098,244.567947 999.267883,252.590805 999.179321,260.276550 
	C998.772095,295.591492 999.000000,330.913757 999.000000,366.616638 
	C983.487122,366.616638 968.093994,366.616638 952.000000,366.616638 
	C952.000000,365.058472 952.000000,363.304626 952.000000,361.550812 
	C952.000000,327.727112 952.212830,293.901093 951.839050,260.081512 
	C951.753662,252.353333 950.516968,244.384216 948.284790,236.986206 
	C943.637207,221.582825 933.119568,212.968994 916.662964,210.832901 
	C895.061890,208.029099 877.669739,220.434616 873.007141,234.680588 
	C870.360046,242.768707 868.354553,251.456604 868.220154,259.908722 
	C867.685547,293.557281 868.000000,327.219360 868.000000,360.876434 
	C868.000000,362.693237 868.000000,364.510010 868.000000,366.662811 
	C852.058838,366.662811 836.333679,366.662811 820.303101,366.662811 
	C820.303101,301.663574 820.303101,236.616013 820.303101,171.283997 
	C835.050293,171.283997 849.774841,171.283997 864.998047,171.283997 
	C864.998047,178.066940 864.998047,184.760071 864.998047,192.123871 
	C891.134460,155.672440 961.617188,157.974197 982.016663,201.255173 
	C987.936157,192.594421 994.285645,184.612366 1003.299805,179.145828 
	C1015.521362,171.734192 1028.619507,167.283691 1042.955444,167.037582 
	C1055.769775,166.817581 1068.546509,166.555466 1081.006836,170.886215 
	C1107.753784,180.182510 1123.318970,199.048279 1128.878052,226.347168 
	C1130.405762,233.849533 1130.868408,241.674271 1130.909912,249.355972 
	C1131.110107,286.510986 1131.000000,323.667633 1131.000000,360.823700 
	C1131.000000,362.645477 1131.000000,364.467255 1131.000000,366.644165 
	C1115.097046,366.644165 1099.371460,366.644165 1083.000000,366.644165 
	C1083.000000,334.001190 1083.000000,301.250641 1083.000000,268.000183 
z"/>
<path fill="#2C39B1" opacity="1.000000" stroke="none" 
	d="
M1206.415039,363.757874 
	C1195.146606,358.523468 1185.073242,352.155151 1176.867676,343.288818 
	C1164.310791,329.720795 1155.745483,313.816498 1153.219482,295.495270 
	C1151.423950,282.472961 1150.371094,269.077454 1151.299438,256.012848 
	C1152.749146,235.612427 1159.689819,216.857788 1172.798218,200.554138 
	C1185.463135,184.801926 1201.451050,174.198990 1220.890381,169.768845 
	C1246.538818,163.923691 1271.776245,164.843033 1294.619873,180.037781 
	C1300.751465,184.116302 1306.144775,189.304565 1311.500000,193.675644 
	C1311.500000,160.134903 1311.500000,125.842522 1311.500000,91.274673 
	C1327.068726,91.274673 1342.792236,91.274673 1358.758423,91.274673 
	C1358.758423,183.117584 1358.758423,274.822449 1358.758423,366.763702 
	C1343.973511,366.763702 1329.366821,366.763702 1314.308105,366.763702 
	C1314.308105,358.485138 1314.308105,350.082214 1314.308105,341.791473 
	C1307.995850,347.220123 1302.332642,353.117828 1295.700928,357.574463 
	C1282.901733,366.176025 1268.594849,370.743713 1252.994507,371.040253 
	C1239.302124,371.300446 1225.744019,370.885315 1212.710205,366.022491 
	C1210.741699,365.288025 1208.743286,364.634155 1206.415039,363.757874 
M1199.912231,277.668518 
	C1201.676270,294.436859 1208.733643,308.348389 1222.658447,318.167206 
	C1234.952026,326.835846 1248.575928,329.547699 1263.595459,327.162384 
	C1274.971191,325.355835 1285.088013,321.134216 1293.074585,313.210480 
	C1308.778442,297.630127 1312.722290,278.258087 1309.042480,256.979004 
	C1304.938354,233.245621 1291.728638,217.575516 1268.049683,211.551559 
	C1252.327393,207.551804 1237.062500,209.921524 1223.931396,218.917725 
	C1203.767944,232.731781 1197.136230,253.151276 1199.912231,277.668518 
z"/>
<path fill="#2C39B1" opacity="1.000000" stroke="none" 
	d="
M1873.651001,209.693161 
	C1861.674316,212.915710 1850.079102,215.888916 1838.499512,218.921555 
	C1836.782715,219.371155 1835.139404,220.101349 1832.771362,220.948929 
	C1828.910400,208.245117 1825.026123,195.464890 1820.725708,181.315094 
	C1833.521118,177.552048 1846.280273,173.493683 1859.208130,170.073135 
	C1876.385376,165.528198 1894.080200,166.271515 1911.493164,167.260590 
	C1930.737549,168.353683 1949.444702,172.490997 1965.435669,184.720901 
	C1979.435547,195.427933 1987.499878,209.414001 1989.921143,226.667877 
	C1990.765625,232.686707 1990.941406,238.837204 1990.955200,244.928635 
	C1991.042969,283.593018 1991.000000,322.257660 1991.000000,360.922241 
	C1991.000000,362.736542 1991.000000,364.550842 1991.000000,366.679443 
	C1977.022339,366.679443 1963.294678,366.679443 1949.071289,366.679443 
	C1949.071289,358.649048 1949.071289,350.615692 1949.071289,342.937408 
	C1943.156006,347.663452 1937.675903,352.710571 1931.553345,356.794281 
	C1918.687134,365.376038 1904.353882,369.684753 1888.822144,370.025848 
	C1874.633179,370.337494 1860.747437,369.558563 1847.255859,364.168945 
	C1825.343018,355.415253 1811.601807,340.448456 1807.921387,316.649872 
	C1805.276611,299.548920 1808.123779,283.766052 1817.939209,269.491638 
	C1826.868896,256.505707 1839.685547,248.872543 1854.395264,244.007355 
	C1869.771606,238.921585 1885.690674,239.353012 1901.434326,240.207474 
	C1915.720825,240.982880 1929.645142,244.557358 1942.804077,250.825241 
	C1943.950439,238.175034 1941.370117,227.299774 1931.488647,218.964478 
	C1924.516479,213.083313 1916.132324,209.982513 1907.480225,209.276688 
	C1896.411377,208.373688 1885.192017,209.315979 1873.651001,209.693161 
M1935.041504,311.441681 
	C1937.694336,306.131256 1940.235718,300.761108 1943.040039,295.531952 
	C1944.837280,292.180847 1943.618530,290.605621 1940.526489,289.101715 
	C1924.234741,281.177399 1907.182983,276.957397 1888.979370,278.001373 
	C1880.596802,278.482056 1872.596802,280.416870 1865.583984,285.171112 
	C1852.213623,294.235474 1852.493164,313.293182 1865.846191,322.460999 
	C1873.542603,327.745270 1882.339722,329.733795 1891.199097,329.807678 
	C1907.925171,329.947235 1923.049561,325.074707 1935.041504,311.441681 
z"/>
<path fill="#2C39B1" opacity="1.000000" stroke="none" 
	d="
M1441.709595,311.210815 
	C1453.478760,323.844330 1468.016113,328.731049 1484.568359,329.037659 
	C1504.126099,329.399963 1521.855103,323.926514 1537.955811,312.980133 
	C1540.647705,311.150024 1543.121460,308.999115 1546.095581,306.685608 
	C1553.785034,317.437347 1561.399536,328.084290 1569.181396,338.965240 
	C1560.838867,349.055237 1550.272705,355.841919 1538.454346,361.034515 
	C1516.838135,370.531982 1494.005493,372.632355 1470.964722,370.781586 
	C1448.426880,368.971161 1428.123779,360.876801 1411.287231,344.913330 
	C1394.653320,329.141907 1385.997437,309.820526 1382.875732,287.393158 
	C1380.334351,269.134430 1380.878784,251.128540 1386.820679,233.726578 
	C1399.087891,197.799667 1424.180420,176.139175 1461.527832,169.019684 
	C1480.988281,165.309967 1500.424927,165.366531 1519.368042,171.818069 
	C1549.333374,182.023483 1566.930420,203.668518 1573.755981,233.885162 
	C1576.548584,246.247360 1576.928833,259.194519 1577.865234,271.915405 
	C1578.219971,276.734650 1577.050903,281.666046 1576.535645,286.964722 
	C1528.162598,286.964722 1479.756104,286.964722 1430.908813,286.964722 
	C1431.869873,296.462738 1435.867798,304.051025 1441.709595,311.210815 
M1483.497070,209.000000 
	C1451.854858,207.921188 1433.558716,230.891876 1432.446655,248.753677 
	C1465.217896,248.753677 1497.984009,248.753677 1531.103149,248.753677 
	C1530.173706,239.003113 1527.235229,230.347809 1520.723633,223.298111 
	C1510.990723,212.761169 1498.445679,208.966156 1483.497070,209.000000 
z"/>
<path fill="#49BC80" opacity="1.000000" stroke="none" 
	d="
M135.208710,333.803741 
	C122.810463,326.844086 112.940796,317.361603 103.228035,307.701416 
	C90.112305,294.656708 81.300995,278.711578 74.137688,261.995941 
	C70.535683,253.590637 68.588135,244.274948 67.211067,235.171478 
	C65.688255,225.104462 64.627960,214.748856 65.213264,204.625748 
	C66.551834,181.474594 71.047585,158.949600 83.550629,138.809189 
	C88.103134,131.475845 91.979332,123.468369 97.715515,117.184731 
	C105.980492,108.130959 115.286636,99.902443 124.867867,92.218826 
	C131.412140,86.970680 138.767975,82.222191 146.507355,79.101158 
	C157.128693,74.817940 168.367661,71.932060 179.514938,69.137268 
	C186.296570,67.437012 193.379776,66.782188 200.371201,66.117111 
	C208.591125,65.335175 216.112579,67.661591 220.177689,78.494995 
	C222.163895,83.788116 219.212341,92.554680 213.046814,96.325882 
	C210.282028,98.016983 206.602844,98.682632 203.277786,98.905258 
	C190.302429,99.774017 177.968033,102.807159 166.037460,108.030464 
	C151.437210,114.422585 138.365875,122.749748 127.771019,134.855591 
	C116.294250,147.969086 107.964920,162.877563 103.247818,179.505402 
	C100.504684,189.174988 98.693703,199.352417 98.304726,209.372833 
	C97.966415,218.087723 99.527603,227.057404 101.456558,235.643280 
	C106.114883,256.377808 117.022430,273.903870 131.654129,289.011017 
	C143.148056,300.878418 157.564255,308.160980 172.907669,314.101257 
	C185.659790,319.038300 198.670074,321.419464 212.155991,320.918182 
	C230.003647,320.254761 246.880859,315.468719 262.410828,306.627502 
	C269.718964,302.467072 277.018005,298.003784 283.402954,292.593994 
	C289.125214,287.745697 293.743103,281.539581 298.576721,275.707489 
	C310.925751,260.807495 317.155182,243.049622 319.724121,224.359787 
	C322.312317,205.529449 319.714508,186.850449 312.385376,169.075089 
	C310.291290,163.996429 307.983032,159.005630 305.914032,153.917191 
	C303.167145,147.161591 305.754272,137.471054 312.265747,134.082764 
	C320.909302,129.585068 331.904694,130.614532 336.471466,139.806870 
	C343.827759,154.614105 350.324402,169.736130 352.052246,186.458572 
	C352.894165,194.606995 354.890717,202.735107 354.819580,210.858887 
	C354.656799,229.444397 351.330048,247.690964 343.952240,264.779846 
	C334.266846,287.213623 320.032867,306.363190 300.869507,321.931519 
	C284.308502,335.385712 266.146729,345.092621 245.433090,350.350372 
	C231.108124,353.986542 216.613831,355.784210 201.967941,354.869995 
	C182.595642,353.660736 163.928391,349.091003 146.507401,340.205627 
	C142.761078,338.294891 139.152863,336.113403 135.208710,333.803741 
z"/>
<path fill="#2C39B1" opacity="1.000000" stroke="none" 
	d="
M1741.000000,339.000000 
	C1741.000000,310.846344 1741.392944,283.184631 1740.825684,255.542618 
	C1740.562134,242.704483 1737.129272,230.411758 1727.406494,220.912201 
	C1720.446289,214.111603 1711.703247,210.882248 1702.362061,210.134583 
	C1685.714844,208.802124 1670.847778,213.398300 1659.384521,226.184265 
	C1651.205200,235.307510 1646.247314,246.070038 1646.064697,258.432861 
	C1645.546387,293.508606 1645.332642,328.588867 1645.000610,363.667328 
	C1644.991455,364.633911 1644.999390,365.600616 1644.999390,366.765686 
	C1628.970947,366.765686 1613.365967,366.765686 1597.380127,366.765686 
	C1597.380127,301.826904 1597.380127,236.787384 1597.380127,171.373688 
	C1611.864014,171.373688 1626.588501,171.373688 1641.777100,171.373688 
	C1641.777100,179.577545 1641.777100,187.966721 1641.777100,195.680069 
	C1648.895630,189.569275 1655.766602,183.020035 1663.314087,177.375229 
	C1670.839722,171.746735 1679.908203,169.047867 1689.143921,168.145996 
	C1699.173096,167.166672 1709.408691,166.296158 1719.387573,167.205948 
	C1743.651855,169.418106 1763.794800,179.456192 1776.653687,201.236053 
	C1785.321533,215.917740 1788.908936,231.996490 1788.962891,248.872025 
	C1789.082031,286.187408 1789.000000,323.503448 1789.000000,360.819214 
	C1789.000000,362.641174 1789.000000,364.463135 1789.000000,366.642212 
	C1773.103149,366.642212 1757.379639,366.642212 1741.000000,366.642212 
	C1741.000000,357.681915 1741.000000,348.590942 1741.000000,339.000000 
z"/>
<path fill="#2B38AF" opacity="1.000000" stroke="none" 
	d="
M184.127350,265.012695 
	C169.205276,263.225952 157.915482,247.621063 157.888336,234.420532 
	C157.859665,220.476700 163.993881,210.404846 175.885895,204.085846 
	C182.383957,200.632996 189.990891,201.125488 197.048843,202.603546 
	C216.037140,206.580032 220.314087,220.284698 221.803375,233.111801 
	C223.546783,248.127899 208.973404,264.294159 193.975769,264.978363 
	C190.844498,265.121185 187.701187,265.000427 184.127350,265.012695 
z"/>
<path fill="#2B38AF" opacity="1.000000" stroke="none" 
	d="
M191.015503,133.331055 
	C195.802383,118.527512 210.672089,115.541641 221.193558,118.829346 
	C236.177353,123.511421 240.314117,139.022659 236.118500,150.269318 
	C230.630295,164.980774 217.109940,169.193161 204.772308,164.756363 
	C192.060333,160.184906 187.419846,147.522720 191.015503,133.331055 
z"/>
<path fill="#FBEE21" opacity="1.000000" stroke="none" 
	d="
M233.551498,263.052429 
	C231.285507,254.496658 232.883011,246.852692 237.615585,239.978180 
	C245.067535,229.153473 261.149872,228.599030 270.750763,236.317154 
	C279.792999,243.586182 282.173492,253.855377 278.878418,263.238617 
	C275.960510,271.547913 268.930786,276.347321 260.589783,277.762665 
	C252.288498,279.171356 244.162186,277.690857 238.581573,270.137360 
	C236.940643,267.916351 235.393890,265.625763 233.551498,263.052429 
z"/>
<path fill="#AE54C3" opacity="1.000000" stroke="none" 
	d="
M142.656616,157.789658 
	C148.707458,148.098618 161.819748,144.586777 171.280777,149.949890 
	C182.087296,156.075729 185.927917,169.778290 180.305176,180.472794 
	C175.811508,189.019791 167.284225,191.845871 158.355103,191.392227 
	C149.504623,190.942596 144.350113,186.386429 141.010086,179.126648 
	C137.735855,172.009949 138.254211,164.833389 142.656616,157.789658 
z"/>
<path fill="#AE54C2" opacity="1.000000" stroke="none" 
	d="
M259.285706,180.220581 
	C266.493469,170.988358 282.892212,171.575699 290.922852,181.399323 
	C296.620758,188.369370 297.863464,196.317749 294.127319,204.719910 
	C290.420288,213.056519 283.889526,217.490524 274.821228,217.965256 
	C266.451416,218.403427 257.539337,212.712509 254.426010,205.095932 
	C250.698837,195.977646 251.496826,187.045410 259.285706,180.220581 
z"/>
<path fill="#AE54C3" opacity="1.000000" stroke="none" 
	d="
M378.207947,61.647797 
	C380.531860,53.311668 384.740784,46.788109 393.011169,44.636528 
	C402.212616,42.242748 410.686218,44.285667 416.717072,52.195251 
	C421.922821,59.022743 423.522766,67.329369 419.432800,74.610893 
	C416.841705,79.223900 411.207367,83.410469 406.064514,85.051941 
	C393.681244,89.004356 382.762604,83.353783 378.578400,70.905914 
	C377.670441,68.204803 378.205444,65.018661 378.207947,61.647797 
z"/>
<path fill="#2B38AE" opacity="1.000000" stroke="none" 
	d="
M339.773621,61.484306 
	C342.117554,68.871078 339.943085,74.801376 335.873840,80.574852 
	C331.297089,87.068352 317.961426,89.981857 310.551880,86.173584 
	C296.447723,78.924469 293.968719,64.462372 303.015076,53.394707 
	C305.355438,50.531425 309.055878,48.037376 312.601288,47.034859 
	C325.404144,43.414646 335.597961,47.923985 339.773621,61.484306 
z"/>
<path fill="#AD54C2" opacity="1.000000" stroke="none" 
	d="
M265.711121,139.007065 
	C254.789597,144.037506 242.832703,137.918915 241.130630,124.206833 
	C240.029892,115.338951 251.563721,106.133598 261.181091,108.141647 
	C268.859314,109.744804 274.293182,115.148911 274.902374,120.267700 
	C275.669373,126.712219 274.765076,134.585144 265.711121,139.007065 
z"/>
<path fill="#2B38AE" opacity="1.000000" stroke="none" 
	d="
M141.463806,243.928085 
	C136.712830,244.374985 132.170532,245.594711 127.997849,244.820984 
	C121.415215,243.600388 118.191696,238.168365 117.108795,231.991470 
	C115.866234,224.903809 118.952248,219.085449 124.684174,215.103531 
	C130.007080,211.405746 142.395645,214.335480 146.426315,219.889297 
	C150.944748,226.115128 150.047958,236.002075 144.988998,240.628006 
	C143.889313,241.633560 142.885956,242.744492 141.463806,243.928085 
z"/>
<path fill="#AD54C1" opacity="1.000000" stroke="none" 
	d="
M216.587952,177.055634 
	C228.047897,173.606277 235.447983,178.623291 237.674957,187.292526 
	C239.603760,194.801056 233.402069,203.791351 226.070251,203.995514 
	C218.216614,204.214218 211.839478,201.233353 210.066879,196.261215 
	C207.260605,188.389633 210.304901,182.291077 216.587952,177.055634 
z"/>
<path fill="#AC54C1" opacity="1.000000" stroke="none" 
	d="
M420.012024,16.383949 
	C426.494293,20.545757 428.702087,26.839319 425.899017,32.602051 
	C423.487427,37.559845 417.209473,39.952663 411.702271,38.013065 
	C406.924835,36.330475 403.548737,30.964811 404.458801,26.168247 
	C405.934937,18.387915 409.927521,15.166933 415.242310,15.978072 
	C416.705109,16.201328 418.222229,16.068548 420.012024,16.383949 
z"/>
<path fill="#FAEC21" opacity="1.000000" stroke="none" 
	d="
M294.431885,101.078598 
	C292.749817,106.651627 288.622833,108.697495 283.867401,108.769585 
	C279.248535,108.839622 274.694427,104.426041 274.028381,100.464859 
	C272.981293,94.237572 274.497772,89.944061 279.947998,87.921318 
	C282.786499,86.867859 287.015533,87.108116 289.660248,88.535583 
	C294.105286,90.934761 295.874969,95.500275 294.431885,101.078598 
z"/>
<path fill="#AC53C1" opacity="1.000000" stroke="none" 
	d="
M212.225769,281.703430 
	C208.629471,277.373474 208.082047,269.810394 210.940552,267.486420 
	C215.689270,263.625641 226.605316,264.196991 229.348862,268.878387 
	C231.501709,272.551910 231.063446,276.741730 228.357178,280.162018 
	C225.451294,283.834625 221.791595,286.253967 216.793488,284.303101 
	C215.289917,283.716217 213.928528,282.765106 212.225769,281.703430 
z"/>
<path fill="#F9EB20" opacity="1.000000" stroke="none" 
	d="
M255.778259,158.474884 
	C257.942230,164.152924 256.093933,170.102432 251.423676,171.758835 
	C245.623428,173.815948 240.626129,171.977417 238.707825,167.335312 
	C236.448471,161.867950 237.824951,156.119354 242.289444,153.895325 
	C247.500275,151.299500 252.563858,152.905365 255.778259,158.474884 
z"/>
<path fill="#2A37AA" opacity="1.000000" stroke="none" 
	d="
M358.947937,58.007904 
	C365.299530,58.351440 369.355530,62.786449 368.875977,68.393066 
	C368.391541,74.057030 364.498901,77.168152 358.117279,76.991776 
	C352.538086,76.837578 348.999237,73.038239 349.006042,67.209915 
	C349.012329,61.833675 352.965973,58.008636 358.947937,58.007904 
z"/>
<path fill="#FAED21" opacity="1.000000" stroke="none" 
	d="
M379.630066,37.696621 
	C369.605072,34.840378 369.069855,34.118382 368.947296,26.991304 
	C368.871826,22.605404 371.214264,19.825489 374.703308,18.284983 
	C378.653839,16.540726 384.318909,18.579048 386.541168,22.129053 
	C388.818817,25.767475 388.973755,29.762690 386.214233,33.109612 
	C384.651062,35.005524 382.084534,36.074234 379.630066,37.696621 
z"/>
<path fill="#FBED21" opacity="1.000000" stroke="none" 
	d="
M134.766937,204.087769 
	C128.277786,205.902374 124.275246,204.937286 122.086403,201.229462 
	C119.962540,197.631729 120.711067,191.824265 123.474785,188.974411 
	C126.151123,186.214661 129.287979,185.097809 132.861053,186.469711 
	C136.250275,187.770981 139.509384,189.503403 139.981781,193.781158 
	C140.466263,198.168259 139.670563,201.954346 134.766937,204.087769 
z"/>
<path fill="#FAED21" opacity="1.000000" stroke="none" 
	d="
M426.211914,79.561264 
	C432.087830,71.388626 441.390137,70.969940 444.978546,78.347763 
	C447.064270,82.636024 444.895538,88.149635 440.303955,90.232185 
	C435.042114,92.618744 428.802032,90.567299 427.054840,85.685150 
	C426.409637,83.882256 426.379669,81.859184 426.211914,79.561264 
z"/>
<path fill="#AC53C1" opacity="1.000000" stroke="none" 
	d="
M159.910767,263.877533 
	C157.519135,268.526611 153.663116,270.371002 148.913422,268.917786 
	C146.061218,268.045105 143.513123,266.393494 143.990845,262.578949 
	C144.377884,259.488647 145.074600,256.472626 148.718613,256.104736 
	C152.721130,255.700623 157.115723,255.083115 159.009979,260.222137 
	C159.400269,261.280975 159.637604,262.396118 159.910767,263.877533 
z"/>
<path fill="#2936A7" opacity="1.000000" stroke="none" 
	d="
M261.874329,98.664864 
	C259.021576,102.009407 255.664429,101.774750 252.807648,100.154160 
	C249.347900,98.191528 248.411957,94.826927 249.950073,90.930336 
	C251.207840,87.743904 253.881256,87.458824 256.463715,88.119743 
	C258.684479,88.688095 261.569122,89.697914 262.502167,91.414032 
	C263.447052,93.151825 262.357361,95.995811 261.874329,98.664864 
z"/>
<path fill="#AD53C1" opacity="1.000000" stroke="none" 
	d="
M334.681915,95.200119 
	C332.625732,88.957359 334.239197,84.542648 338.320496,83.957687 
	C342.699036,83.330132 345.101135,85.680023 346.627838,89.279320 
	C347.944763,92.383972 346.536835,94.911201 344.035675,96.519028 
	C340.913544,98.526001 337.592865,99.082008 334.681915,95.200119 
z"/>
<path fill="#AC53C0" opacity="1.000000" stroke="none" 
	d="
M238.382233,225.696503 
	C237.367462,223.699570 236.232086,221.961761 236.098801,220.150223 
	C235.778534,215.797531 238.232025,212.686234 241.618011,213.059265 
	C247.784576,213.738678 249.140182,215.522263 248.972382,220.566635 
	C248.825531,224.981766 245.882614,227.465103 241.472244,226.921066 
	C240.527222,226.804474 239.634232,226.266144 238.382233,225.696503 
z"/>
<path fill="#2A37AB" opacity="1.000000" stroke="none" 
	d="
M157.307083,207.347458 
	C154.528595,208.416107 151.827759,209.921570 149.431976,209.535278 
	C148.048706,209.312241 146.208374,205.976013 146.323349,204.151199 
	C146.429489,202.466476 148.570709,200.187317 150.341644,199.471619 
	C154.854919,197.647659 158.176300,201.335037 157.307083,207.347458 
z"/>
<path fill="#2A36A8" opacity="1.000000" stroke="none" 
	d="
M340.674561,34.292191 
	C341.013611,38.650944 338.708099,40.298431 335.079559,39.906689 
	C332.569702,39.635723 329.824463,39.225140 329.932129,35.380444 
	C330.011200,32.558331 330.606445,30.319048 333.688416,30.080750 
	C336.637573,29.852716 340.348816,28.934057 340.674561,34.292191 
z"/>
<path fill="#F9EC20" opacity="1.000000" stroke="none" 
	d="
M440.361511,56.819283 
	C441.539612,59.972141 441.307617,62.850639 438.232117,63.682213 
	C436.440887,64.166534 433.529114,63.386101 432.208984,62.077579 
	C430.073975,59.961418 430.657593,57.337521 433.191315,55.266556 
	C436.099457,52.889572 438.192352,53.937923 440.361511,56.819283 
z"/>
<path fill="#AA52BF" opacity="1.000000" stroke="none" 
	d="
M366.480164,49.744591 
	C360.929169,49.316319 358.572845,46.271019 360.869995,42.819065 
	C361.710907,41.555416 363.696320,39.990189 364.821442,40.219791 
	C366.662109,40.595425 368.745911,42.013683 369.707886,43.607395 
	C370.267822,44.534954 368.919739,46.693577 368.269501,48.230301 
	C368.034363,48.786076 367.331024,49.143757 366.480164,49.744591 
z"/>
<path fill="#A952BD" opacity="1.000000" stroke="none" 
	d="
M197.980591,188.088623 
	C198.132721,191.685287 196.315811,193.369827 193.463669,192.814484 
	C191.817642,192.493988 189.506149,190.736649 189.270157,189.328400 
	C189.008865,187.769211 190.377563,184.873184 191.741043,184.330872 
	C194.429123,183.261703 197.335953,183.891068 197.980591,188.088623 
z"/>
<path fill="#A550B9" opacity="1.000000" stroke="none" 
	d="
M290.635986,79.927811 
	C287.481476,80.237679 285.091644,79.530556 285.158051,76.375656 
	C285.188232,74.940842 286.765869,72.333992 287.571533,72.360825 
	C289.485870,72.424591 291.889008,73.268097 293.130737,74.657776 
	C295.309204,77.095741 293.219086,78.712280 290.635986,79.927811 
z"/>
<path fill="#FFFFFF" opacity="0.000000" stroke="none" 
	d="
M692.344116,138.721161 
	C698.706421,142.374893 705.231079,145.175674 710.671570,149.379562 
	C729.971680,164.292709 740.220947,184.863586 743.769775,208.408890 
	C747.518066,233.277435 745.946655,257.938690 733.639465,280.684784 
	C721.527283,303.070282 703.202087,318.133759 678.213928,323.795197 
	C668.392639,326.020325 657.996704,327.253113 647.977844,326.729736 
	C629.152832,325.746277 611.803284,319.788513 596.882507,307.487396 
	C578.566284,292.387024 568.782288,272.488953 565.248840,249.737717 
	C561.440735,225.217438 563.083313,200.917923 574.976074,178.360794 
	C588.117188,153.435852 608.469666,138.265884 636.339539,132.896439 
	C655.582764,129.189011 674.020325,131.011124 692.344116,138.721161 
z"/>
<path fill="#FFFFFF" opacity="0.000000" stroke="none" 
	d="
M1199.661377,277.287476 
	C1197.136230,253.151276 1203.767944,232.731781 1223.931396,218.917725 
	C1237.062500,209.921524 1252.327393,207.551804 1268.049683,211.551559 
	C1291.728638,217.575516 1304.938354,233.245621 1309.042480,256.979004 
	C1312.722290,278.258087 1308.778442,297.630127 1293.074585,313.210480 
	C1285.088013,321.134216 1274.971191,325.355835 1263.595459,327.162384 
	C1248.575928,329.547699 1234.952026,326.835846 1222.658447,318.167206 
	C1208.733643,308.348389 1201.676270,294.436859 1199.661377,277.287476 
z"/>
<path fill="#FFFFFF" opacity="0.000000" stroke="none" 
	d="
M1934.794189,311.703979 
	C1923.049561,325.074707 1907.925171,329.947235 1891.199097,329.807678 
	C1882.339722,329.733795 1873.542603,327.745270 1865.846191,322.460999 
	C1852.493164,313.293182 1852.213623,294.235474 1865.583984,285.171112 
	C1872.596802,280.416870 1880.596802,278.482056 1888.979370,278.001373 
	C1907.182983,276.957397 1924.234741,281.177399 1940.526489,289.101715 
	C1943.618530,290.605621 1944.837280,292.180847 1943.040039,295.531952 
	C1940.235718,300.761108 1937.694336,306.131256 1934.794189,311.703979 
z"/>
<path fill="#FFFFFF" opacity="0.000000" stroke="none" 
	d="
M1483.981201,209.000000 
	C1498.445679,208.966156 1510.990723,212.761169 1520.723633,223.298111 
	C1527.235229,230.347809 1530.173706,239.003113 1531.103149,248.753677 
	C1497.984009,248.753677 1465.217896,248.753677 1432.446655,248.753677 
	C1433.558716,230.891876 1451.854858,207.921188 1483.981201,209.000000 
z"/>
</svg>